<svg width="107" height="24" viewBox="0 0 107 24" fill="none" xmlns="http://www.w3.org/2000/svg">
<path d="M9.24 3.326C9.00533 3.13533 8.76333 3.00333 8.514 2.93C8.26467 2.842 7.95667 2.798 7.59 2.798C6.82733 2.798 6.226 2.974 5.786 3.326C5.346 3.678 5.126 4.14733 5.126 4.734C5.126 5.46733 5.35333 6.098 5.808 6.626C6.26267 7.154 7.05467 7.77 8.184 8.474C9.21067 9.134 10.0247 9.84533 10.626 10.608C11.2273 11.3707 11.528 12.2507 11.528 13.248C11.5427 14.1573 11.3153 14.9933 10.846 15.756C10.3767 16.504 9.66533 17.1053 8.712 17.56C7.77333 18.0147 6.622 18.242 5.258 18.242C4.158 18.242 3.102 18.1247 2.09 17.89C1.09267 17.6553 0.454667 17.4207 0.176 17.186L0.792 13.798H2.992L3.102 16.196C3.63 16.6507 4.31933 16.878 5.17 16.878C6.182 16.878 6.91533 16.68 7.37 16.284C7.83933 15.8733 8.074 15.3307 8.074 14.656C8.074 13.996 7.86133 13.4167 7.436 12.918C7.02533 12.4047 6.30667 11.8253 5.28 11.18C4.19467 10.4907 3.344 9.75 2.728 8.958C2.112 8.166 1.804 7.242 1.804 6.186C1.804 4.69 2.36133 3.53133 3.476 2.71C4.60533 1.874 6.06467 1.456 7.854 1.456C9.80467 1.456 11.2347 1.72 12.144 2.248L11.572 5.482H9.548L9.24 3.326ZM18.116 6.692C18.996 5.9 20.0006 5.504 21.13 5.504C22.362 5.504 23.2933 5.90733 23.924 6.714C24.5546 7.52067 24.87 8.672 24.87 10.168C24.87 11.6493 24.5693 13.006 23.968 14.238C23.3666 15.47 22.516 16.4453 21.416 17.164C20.316 17.868 19.0546 18.22 17.632 18.22C17.3093 18.22 16.9426 18.1833 16.532 18.11L15.762 23.588H12.418L14.574 7.638L13.408 7L13.584 6.076L17.676 5.504L18.226 5.768L18.116 6.692ZM16.752 16.57C17.0746 16.6873 17.4633 16.746 17.918 16.746C19.0326 16.746 19.854 16.108 20.382 14.832C20.9246 13.556 21.196 12.0013 21.196 10.168C21.196 9.36133 21.064 8.694 20.8 8.166C20.536 7.638 20.1473 7.374 19.634 7.374C19.0033 7.374 18.424 7.73333 17.896 8.452L16.752 16.57ZM35.9074 15.712C35.5114 16.3427 34.8808 16.9367 34.0154 17.494C33.1501 18.0367 32.1088 18.308 30.8914 18.308C29.8061 18.308 28.9114 18.0807 28.2074 17.626C27.5034 17.1567 26.9901 16.548 26.6674 15.8C26.3448 15.052 26.1834 14.2453 26.1834 13.38C26.1834 11.884 26.4841 10.5347 27.0854 9.332C27.7014 8.12933 28.5374 7.19067 29.5934 6.516C30.6641 5.82667 31.8448 5.482 33.1354 5.482C34.3381 5.482 35.2254 5.746 35.7974 6.274C36.3694 6.802 36.6554 7.484 36.6554 8.32C36.6554 9.39067 36.3034 10.2853 35.5994 11.004C34.8954 11.708 34.0301 12.2287 33.0034 12.566C31.9914 12.9033 30.9868 13.0867 29.9894 13.116C29.9748 14.2013 30.1434 15.0227 30.4954 15.58C30.8621 16.1373 31.3681 16.416 32.0134 16.416C32.7614 16.416 33.3848 16.2473 33.8834 15.91C34.3968 15.5727 34.8441 15.1473 35.2254 14.634L35.9074 15.712ZM32.3654 6.978C31.6028 6.978 31.0308 7.46933 30.6494 8.452C30.2828 9.43467 30.0628 10.5567 29.9894 11.818C30.4441 11.7887 30.9281 11.6493 31.4414 11.4C31.9548 11.136 32.3874 10.762 32.7394 10.278C33.0914 9.794 33.2674 9.22933 33.2674 8.584C33.2674 7.51333 32.9668 6.978 32.3654 6.978ZM42.801 8.034C43.2997 7.25667 43.8937 6.64067 44.583 6.186C45.2723 5.73133 46.0277 5.504 46.849 5.504C48.7557 5.504 49.709 6.58933 49.709 8.76C49.709 9.18533 49.533 10.454 49.181 12.566C49.1517 12.786 49.093 13.1307 49.005 13.6C48.7997 14.6853 48.697 15.4187 48.697 15.8C48.697 16.196 48.8363 16.394 49.115 16.394C49.2323 16.394 49.357 16.3647 49.489 16.306C49.6357 16.2327 49.8337 16.1007 50.083 15.91L50.391 16.658C50.1417 16.9953 49.753 17.34 49.225 17.692C48.697 18.044 48.0223 18.22 47.201 18.22C46.3503 18.22 45.7783 18.0513 45.485 17.714C45.1917 17.3767 45.045 16.944 45.045 16.416C45.045 16.02 45.1697 15.1987 45.419 13.952L45.551 13.248C45.8737 11.4147 46.035 10.0873 46.035 9.266C46.035 8.63533 45.969 8.20267 45.837 7.968C45.705 7.73333 45.485 7.616 45.177 7.616C44.7517 7.616 44.2897 7.87267 43.791 8.386C43.2923 8.88467 42.867 9.508 42.515 10.256L41.459 18H38.049L39.435 7.638L38.291 7.022L38.467 6.076L42.427 5.504L42.977 5.768L42.801 8.034ZM62.1993 15.558C62.1847 15.6313 62.1773 15.734 62.1773 15.866C62.1773 16.218 62.3093 16.394 62.5733 16.394C62.808 16.394 63.138 16.2327 63.5633 15.91L63.8713 16.658C63.534 17.0393 63.1307 17.3987 62.6613 17.736C62.2067 18.0587 61.6127 18.22 60.8793 18.22C60.3073 18.22 59.8747 18.088 59.5813 17.824C59.288 17.5453 59.1047 17.142 59.0313 16.614L59.0093 16.416C58.6573 16.9147 58.1807 17.34 57.5793 17.692C56.978 18.044 56.2667 18.22 55.4453 18.22C54.184 18.22 53.2527 17.802 52.6513 16.966C52.05 16.1153 51.7493 15.0227 51.7493 13.688C51.7493 12.2507 52.0207 10.9087 52.5633 9.662C53.106 8.41533 53.92 7.41067 55.0053 6.648C56.1053 5.88533 57.4473 5.504 59.0313 5.504C59.3687 5.504 59.7427 5.54067 60.1533 5.614L60.6593 2.072L58.9873 1.61L59.1853 0.729999L63.7833 0.267999L64.3553 0.575999L62.1993 15.558ZM59.9113 7.176C59.5153 7.044 59.134 6.978 58.7673 6.978C57.5647 6.978 56.6993 7.638 56.1713 8.958C55.6433 10.278 55.3793 11.8107 55.3793 13.556C55.3793 14.436 55.5113 15.1253 55.7753 15.624C56.054 16.1227 56.4353 16.372 56.9193 16.372C57.2713 16.372 57.6013 16.2693 57.9093 16.064C58.232 15.844 58.5033 15.5653 58.7233 15.228L59.9113 7.176ZM72.568 1.654L72.48 2.622L70.566 2.864L68.762 16.856L73.91 16.724L75.582 12.588L76.902 12.808L75.824 18H64.736L64.824 17.098L66.386 16.834L68.146 2.864L66.672 2.622L66.782 1.654H72.568ZM87.4596 15.888C87.0783 16.46 86.4623 16.9953 85.6116 17.494C84.7756 17.9927 83.837 18.242 82.7956 18.242C81.7983 18.242 80.9696 18.022 80.3096 17.582C79.6496 17.1273 79.1656 16.5407 78.8576 15.822C78.5496 15.0887 78.3956 14.304 78.3956 13.468C78.3956 12.0453 78.6816 10.7253 79.2536 9.508C79.8256 8.276 80.6103 7.30067 81.6076 6.582C82.605 5.86333 83.705 5.504 84.9076 5.504C85.9636 5.504 86.7556 5.75333 87.2836 6.252C87.8263 6.75067 88.0976 7.41067 88.0976 8.232C88.0976 9.288 87.687 10.1753 86.8656 10.894C86.0443 11.598 85.069 12.126 83.9396 12.478C82.8103 12.83 81.791 13.0133 80.8816 13.028C80.823 14.0693 80.9916 14.9567 81.3876 15.69C81.7983 16.4233 82.4436 16.79 83.3236 16.79C83.9836 16.79 84.6216 16.636 85.2376 16.328C85.8683 16.0053 86.4403 15.5727 86.9536 15.03L87.4596 15.888ZM84.3796 6.692C83.7196 6.692 83.133 6.96333 82.6196 7.506C82.121 8.04867 81.725 8.73067 81.4316 9.552C81.1383 10.3587 80.9623 11.158 80.9036 11.95C81.6076 11.9207 82.341 11.7667 83.1036 11.488C83.881 11.1947 84.5263 10.784 85.0396 10.256C85.553 9.71333 85.8096 9.09733 85.8096 8.408C85.8096 7.85067 85.685 7.42533 85.4356 7.132C85.1863 6.83867 84.8343 6.692 84.3796 6.692ZM97.2403 7.66C97.1083 7.484 96.815 7.29333 96.3603 7.088C95.9203 6.88267 95.4143 6.78 94.8423 6.78C94.1823 6.78 93.6543 6.92667 93.2583 7.22C92.8623 7.49867 92.6643 7.90933 92.6643 8.452C92.6643 8.92133 92.8257 9.354 93.1483 9.75C93.471 10.1313 93.9477 10.5493 94.5783 11.004C95.0917 11.3853 95.5097 11.73 95.8323 12.038C96.155 12.3313 96.4337 12.7053 96.6683 13.16C96.903 13.6 97.0203 14.0987 97.0203 14.656C97.0203 15.4187 96.815 16.0713 96.4043 16.614C95.9937 17.142 95.4363 17.5453 94.7323 17.824C94.043 18.088 93.2877 18.22 92.4663 18.22C91.8063 18.22 91.1463 18.1467 90.4863 18C89.8263 17.8533 89.3937 17.692 89.1883 17.516L89.5623 15.91C89.8557 16.1447 90.2737 16.3647 90.8163 16.57C91.359 16.7753 91.9237 16.878 92.5103 16.878C93.1263 16.878 93.6543 16.746 94.0943 16.482C94.5343 16.218 94.7543 15.7853 94.7543 15.184C94.7543 14.6707 94.5783 14.2307 94.2263 13.864C93.8743 13.4973 93.3537 13.072 92.6643 12.588C91.1683 11.5467 90.4203 10.344 90.4203 8.98C90.4203 8.29067 90.611 7.682 90.9923 7.154C91.3883 6.626 91.9237 6.22267 92.5983 5.944C93.273 5.65067 94.021 5.504 94.8423 5.504C95.3703 5.504 95.9057 5.55533 96.4483 5.658C97.0057 5.746 97.3943 5.834 97.6143 5.922L97.2403 7.66ZM106.608 7.66C106.476 7.484 106.182 7.29333 105.728 7.088C105.288 6.88267 104.782 6.78 104.21 6.78C103.55 6.78 103.022 6.92667 102.626 7.22C102.23 7.49867 102.032 7.90933 102.032 8.452C102.032 8.92133 102.193 9.354 102.516 9.75C102.838 10.1313 103.315 10.5493 103.946 11.004C104.459 11.3853 104.877 11.73 105.2 12.038C105.522 12.3313 105.801 12.7053 106.036 13.16C106.27 13.6 106.388 14.0987 106.388 14.656C106.388 15.4187 106.182 16.0713 105.772 16.614C105.361 17.142 104.804 17.5453 104.1 17.824C103.41 18.088 102.655 18.22 101.834 18.22C101.174 18.22 100.514 18.1467 99.8535 18C99.1935 17.8533 98.7609 17.692 98.5555 17.516L98.9295 15.91C99.2229 16.1447 99.6409 16.3647 100.184 16.57C100.726 16.7753 101.291 16.878 101.878 16.878C102.494 16.878 103.022 16.746 103.462 16.482C103.902 16.218 104.122 15.7853 104.122 15.184C104.122 14.6707 103.946 14.2307 103.594 13.864C103.242 13.4973 102.721 13.072 102.032 12.588C100.536 11.5467 99.7875 10.344 99.7875 8.98C99.7875 8.29067 99.9782 7.682 100.36 7.154C100.756 6.626 101.291 6.22267 101.966 5.944C102.64 5.65067 103.388 5.504 104.21 5.504C104.738 5.504 105.273 5.55533 105.816 5.658C106.373 5.746 106.762 5.834 106.982 5.922L106.608 7.66Z" fill="#363636"/>
</svg>
